#!OML:ASF X:\für Bonn\!DataBase\2005_08_11_Bastian_Final\c3d\Bastian.ASF
:FULLY-SPECIFIED
:DEGREES
139
root -4.65445 16.0834 -9.19787 153.632 103.466 -564.555
lowerback 10.2619 0.18831 -3.97457
upperback 5.87056 0.109868 0.487432
thorax 0.361344 0.035791 2.72949
lowerneck -12.5194 -0.867827 -5.71776
upperneck -2.11246 -0.350552 5.92857
head 1.5458 0.0610446 2.93806
rclavicle -9.54166e-015 -6.36111e-015
rhumerus -50.3477 7.63296 -85.2934
rradius 41.8535
rwrist 8.78188
rhand -20.3114 15.738
rfingers 7.12502
rthumb 6.03922 -14.156
lclavicle -9.54166e-015 -6.36111e-015
lhumerus -35.4025 -28.5398 103.237
lradius 84.9196
lwrist 19.4881
lhand -1.24389 -12.7147
lfingers 7.12502
lthumb 24.3984 15.7519
rfemur -32.5162 -10.3816 16.2062
rtibia 104.255
rfoot -13.5938 -5.77771
rtoes -9.21258
lfemur -10.0498 -0.409506 -26.9639
ltibia 52.2757
lfoot -24.6584 -17.1652
ltoes 27.8913
140
root -4.39307 16.1647 -9.08908 152.416 103.144 -565.983
lowerback 9.89291 -0.016683 -3.90776
upperback 5.78082 -0.149371 0.550016
thorax 0.487953 -0.0978153 2.78054
lowerneck -12.4574 -0.726154 -5.70776
upperneck -2.05188 -0.1688 5.81836
head 1.54173 0.146564 2.90767
rclavicle -8.15017e-015 -2.06736e-014
rhumerus -50.5638 6.90253 -84.5946
rradius 39.8595
rwrist 8.94479
rhand -20.2925 15.7783
rfingers 7.12502
rthumb 6.05741 -14.1151
lclavicle -8.15017e-015 -2.06736e-014
lhumerus -34.7435 -29.1868 103.489
lradius 86.3867
lwrist 20.2429
lhand -0.481114 -12.8612
lfingers 7.12502
lthumb 25.1295 15.505
rfemur -34.0415 -10.0429 16.5228
rtibia 103.309
rfoot -14.6252 -6.13861
rtoes -8.72467
lfemur -8.36221 -0.68399 -26.5346
ltibia 50.6438
lfoot -24.4982 -17.0788
ltoes 26.0002
141
root -4.13042 16.2578 -8.98101 151.183 102.848 -567.441
lowerback 9.51276 -0.214758 -3.82546
upperback 5.68168 -0.39928 0.617041
thorax 0.610523 -0.226408 2.82401
lowerneck -12.4317 -0.576809 -5.69258
upperneck -1.95455 0.0225879 5.72084
head 1.55605 0.237526 2.88202
rclavicle -1.43125e-014 8.74653e-015
rhumerus -50.8678 6.21363 -83.9506
rradius 38.0951
rwrist 8.88086
rhand -20.1895 15.6024
rfingers 7.12502
rthumb 6.15691 -14.2881
lclavicle -1.43125e-014 8.74653e-015
lhumerus -34.2031 -29.8995 103.721
lradius 87.8055
lwrist 21.0559
lhand 0.0809493 -13.172
lfingers 7.12502
lthumb 25.6679 15.1176
rfemur -35.439 -9.73404 16.8893
rtibia 102.075
rfoot -15.5666 -6.48548
rtoes -8.70209
lfemur -6.66207 -0.983933 -26.114
ltibia 48.8799
lfoot -24.1541 -16.8357
ltoes 23.6646
142
root -3.86469 16.3628 -8.87387 149.673 102.592 -569.162
lowerback 9.14486 -0.421804 -3.70021
upperback 5.58883 -0.658689 0.722358
thorax 0.733929 -0.359229 2.88136
lowerneck -12.525 -0.430813 -5.7104
upperneck -1.75015 0.215973 5.6114
head 1.62746 0.330119 2.86174
rclavicle 6.75868e-015 1.27222e-014
rhumerus -51.2073 5.6432 -83.3419
rradius 36.5641
rwrist 8.55476
rhand -19.9664 15.2558
rfingers 7.12502
rthumb 6.37229 -14.6284
lclavicle 6.75868e-015 1.27222e-014
lhumerus -33.7024 -30.6021 103.945
lradius 89.1735
lwrist 22.002
lhand 0.537538 -13.478
lfingers 7.12502
lthumb 26.1051 14.7478
rfemur -36.6091 -9.40631 17.3235
rtibia 100.538
rfoot -16.4079 -6.77447
rtoes -8.75189
lfemur -4.92916 -1.33367 -25.6395
ltibia 47.0504
lfoot -23.6779 -16.5035
ltoes 21.0021
143
root -3.59685 16.4745 -8.76807 147.658 102.444 -571.375
lowerback 8.80186 -0.62219 -3.4111
upperback 5.48972 -0.899943 0.842495
thorax 0.832567 -0.478483 2.85821
lowerneck -12.5965 -0.266391 -5.69008
upperneck -1.546 0.427933 5.49433
head 1.69373 0.431073 2.83261
rclavicle 1.07344e-014 2.38542e-015
rhumerus -51.8049 5.28002 -82.9404
rradius 35.4573
rwrist 7.85103
rhand -19.6764 14.7032
rfingers 7.12502
rthumb 6.65218 -15.1723
lclavicle 1.07344e-014 2.38542e-015
lhumerus -33.3182 -31.3733 104.12
lradius 90.5589
lwrist 22.915
lhand 0.925125 -13.7447
lfingers 7.12502
lthumb 26.4762 14.4257
rfemur -37.5761 -9.01319 17.8961
rtibia 98.7054
rfoot -16.9962 -7.04976
rtoes -8.66992
lfemur -3.19584 -1.6226 -25.0198
ltibia 45.2
lfoot -22.9457 -16.197
ltoes 17.8309
144
root -3.3259 16.5936 -8.66513 145.253 102.401 -573.944
lowerback 8.49226 -0.830813 -3.00413
upperback 5.41117 -1.14582 0.997473
thorax 0.9316 -0.597287 2.8034
lowerneck -12.7417 -0.114012 -5.75223
upperneck -1.28198 0.636635 5.40843
head 1.79456 0.531689 2.8321
rclavicle 3.49861e-014 -1.82882e-014
rhumerus -52.4727 5.09277 -82.6498
rradius 34.6018
rwrist 7.05465
rhand -19.4244 14.1626
rfingers 7.12502
rthumb 6.89551 -15.7051
lclavicle 3.49861e-014 -1.82882e-014
lhumerus -32.9592 -32.0674 104.239
lradius 91.9175
lwrist 23.7374
lhand 1.30588 -13.9163
lfingers 7.12502
lthumb 26.8406 14.1987
rfemur -38.3262 -8.57655 18.5617
rtibia 96.5974
rfoot -17.4615 -7.17929
rtoes -8.33328
lfemur -1.45264 -1.86133 -24.2859
ltibia 43.3363
lfoot -21.7125 -15.9329
ltoes 14.7894
145
root -3.04694 16.7238 -8.56576 142.439 102.452 -576.895
lowerback 8.18298 -1.04302 -2.45632
upperback 5.33573 -1.38967 1.18613
thorax 1.02888 -0.71162 2.70203
lowerneck -12.8449 0.0359506 -5.8845
upperneck -1.04589 0.850492 5.36901
head 1.87906 0.635517 2.86055
rclavicle -4.07509e-014 -3.97569e-015
rhumerus -53.1693 4.95531 -82.3915
rradius 33.9276
rwrist 6.22383
rhand -19.2618 13.6884
rfingers 7.12502
rthumb 7.05248 -16.1741
lclavicle -4.07509e-014 -3.97569e-015
lhumerus -32.6985 -32.7263 104.37
lradius 93.2351
lwrist 24.4645
lhand 1.64346 -14.0799
lfingers 7.12502
lthumb 27.1636 13.9851
rfemur -38.7859 -8.17807 19.2976
rtibia 94.1757
rfoot -17.98 -7.04016
rtoes -7.59019
lfemur 0.31317 -2.0968 -23.4469
ltibia 41.4309
lfoot -20.0088 -15.7285
ltoes 11.8488
146
root -2.75809 16.8659 -8.47165 139.633 102.567 -579.839
lowerback 7.80682 -1.25461 -1.81782
upperback 5.28455 -1.62936 1.36122
thorax 1.18247 -0.821621 2.5315
lowerneck -12.9884 0.188697 -5.96419
upperneck -0.787586 1.06402 5.28476
head 1.978 0.737837 2.86518
rclavicle 3.57812e-015 -1.11319e-014
rhumerus -53.9033 4.83521 -82.1944
rradius 33.458
rwrist 5.50311
rhand -19.2615 13.3187
rfingers 7.12502
rthumb 7.0527 -16.5438
lclavicle 3.57812e-015 -1.11319e-014
lhumerus -32.4802 -33.3598 104.44
lradius 94.5439
lwrist 25.0609
lhand 1.90473 -14.2193
lfingers 7.12502
lthumb 27.4135 13.8063
rfemur -38.9966 -7.83939 20.0134
rtibia 91.4685
rfoot -18.5584 -6.71614
rtoes -7.1335
lfemur 2.05758 -2.27302 -22.5816
ltibia 39.4817
lfoot -17.883 -15.5586
ltoes 8.79183
147
root -2.46287 17.0151 -8.37966 137.225 102.691 -582.365
lowerback 7.41736 -1.44565 -1.24202
upperback 5.21747 -1.85137 1.51098
thorax 1.32471 -0.923223 2.36675
lowerneck -13.0878 0.352774 -6.0242
upperneck -0.514954 1.28676 5.20758
head 2.07347 0.843649 2.86898
rclavicle 2.22639e-014 -1.51076e-014
rhumerus -54.7216 4.81686 -82.0703
rradius 33.2172
rwrist 4.73607
rhand -19.332 13.0678
rfingers 7.12502
rthumb 6.98464 -16.7969
lclavicle 2.22639e-014 -1.51076e-014
lhumerus -32.3991 -33.9492 104.535
lradius 95.8001
lwrist 25.6083
lhand 2.16703 -14.4492
lfingers 7.12502
lthumb 27.6643 13.5365
rfemur -38.9843 -7.47733 20.6198
rtibia 88.54
rfoot -19.1584 -6.39364
rtoes -7.18108
lfemur 3.74578 -2.38339 -21.7947
ltibia 37.5566
lfoot -15.3343 -15.3684
ltoes 5.95587
